<svg xmlns="http://www.w3.org/2000/svg" viewBox="0 0 512 512">
  <defs>
    <linearGradient id="bg" x1="0%" y1="0%" x2="100%" y2="100%">
      <stop offset="0%" style="stop-color:#3B82F6"/>
      <stop offset="100%" style="stop-color:#8B5CF6"/>
    </linearGradient>
    <linearGradient id="brain" x1="0%" y1="0%" x2="100%" y2="100%">
      <stop offset="0%" style="stop-color:#FFFFFF"/>
      <stop offset="100%" style="stop-color:#E0E7FF"/>
    </linearGradient>
  </defs>
  <rect width="512" height="512" rx="96" fill="url(#bg)"/>
  <g transform="translate(256,240)" fill="none" stroke="url(#brain)" stroke-width="16" stroke-linecap="round" stroke-linejoin="round">
    <!-- Left brain hemisphere -->
    <path d="M-10,-90 C-60,-90 -110,-70 -120,-20 C-130,30 -100,60 -80,80 C-60,100 -30,110 -10,100" fill="url(#brain)" fill-opacity="0.15"/>
    <path d="M-10,-90 C-60,-90 -110,-70 -120,-20 C-130,30 -100,60 -80,80 C-60,100 -30,110 -10,100"/>
    <!-- Right brain hemisphere -->
    <path d="M10,-90 C60,-90 110,-70 120,-20 C130,30 100,60 80,80 C60,100 30,110 10,100" fill="url(#brain)" fill-opacity="0.15"/>
    <path d="M10,-90 C60,-90 110,-70 120,-20 C130,30 100,60 80,80 C60,100 30,110 10,100"/>
    <!-- Brain center line -->
    <line x1="0" y1="-85" x2="0" y2="95"/>
    <!-- Brain folds left -->
    <path d="M-10,-40 C-50,-35 -70,-15 -65,15"/>
    <path d="M-10,10 C-45,15 -70,35 -55,60"/>
    <!-- Brain folds right -->
    <path d="M10,-40 C50,-35 70,-15 65,15"/>
    <path d="M10,10 C45,15 70,35 55,60"/>
    <!-- Puzzle piece notch (right side) -->
    <circle cx="125" cy="-20" r="20" fill="#0F172A" stroke="none"/>
    <circle cx="125" cy="-20" r="20" fill="url(#bg)" fill-opacity="0.6" stroke="url(#brain)" stroke-width="8"/>
  </g>
  <!-- Water waves at bottom (ferry element) -->
  <g transform="translate(0,400)" fill="none" stroke="#FFFFFF" stroke-width="8" stroke-linecap="round" opacity="0.5">
    <path d="M60,20 Q110,-10 160,20 Q210,50 260,20 Q310,-10 360,20 Q410,50 460,20"/>
    <path d="M40,50 Q90,20 140,50 Q190,80 240,50 Q290,20 340,50 Q390,80 440,50"/>
  </g>
</svg>
