<svg xmlns="http://www.w3.org/2000/svg" viewBox="0 0 32 32">
  <defs>
    <linearGradient id="g" x1="0%" y1="0%" x2="100%" y2="100%">
      <stop offset="0%" style="stop-color:#3B82F6"/>
      <stop offset="100%" style="stop-color:#8B5CF6"/>
    </linearGradient>
  </defs>
  <rect width="32" height="32" rx="6" fill="url(#g)"/>
  <g transform="translate(16,14)" fill="none" stroke="#FFFFFF" stroke-width="1.5" stroke-linecap="round" stroke-linejoin="round">
    <path d="M-1,-7 C-5,-7 -8,-5 -9,-1.5 C-9.5,2 -7.5,4.5 -6,6 C-4.5,7.5 -2,8 -1,7.5"/>
    <path d="M1,-7 C5,-7 8,-5 9,-1.5 C9.5,2 7.5,4.5 6,6 C4.5,7.5 2,8 1,7.5"/>
    <line x1="0" y1="-6.5" x2="0" y2="7"/>
    <path d="M-1,-3 C-3.5,-2.5 -5,-1 -4.5,1"/>
    <path d="M1,-3 C3.5,-2.5 5,-1 4.5,1"/>
  </g>
  <g transform="translate(0,26)" fill="none" stroke="#FFFFFF" stroke-width="1" stroke-linecap="round" opacity="0.5">
    <path d="M4,1 Q8,-1 12,1 Q16,3 20,1 Q24,-1 28,1"/>
  </g>
</svg>
